<svg width="169" height="37" viewBox="0 0 169 37" fill="none" xmlns="http://www.w3.org/2000/svg">
<g clip-path="url(#clip0_84_119)">
<path d="M43.0401 11.6749C42.1827 11.6749 41.4501 11.5347 40.8265 11.27C40.203 11.0052 39.7197 10.6158 39.3612 10.1174C39.0183 9.61904 38.8156 9.0272 38.7844 8.34191H40.5147C40.5615 8.74686 40.6862 9.0895 40.92 9.35427C41.1539 9.63462 41.4501 9.83709 41.8242 9.96169C42.1983 10.1019 42.588 10.1642 43.0245 10.1642C43.5077 10.1642 43.9286 10.0863 44.3027 9.93054C44.6925 9.77479 44.9886 9.57232 45.1913 9.29197C45.4095 9.01163 45.5186 8.70013 45.5186 8.34191C45.5186 7.99927 45.4251 7.73449 45.238 7.51645C45.051 7.31398 44.8016 7.14265 44.4742 7.00248C44.1469 6.86231 43.7883 6.73771 43.3674 6.62868L42.0424 6.27046C41.1227 6.02127 40.39 5.64747 39.8756 5.16465C39.3456 4.66626 39.0962 4.04327 39.0962 3.26453C39.0962 2.61039 39.2677 2.03412 39.6262 1.5513C39.9691 1.06848 40.4524 0.679115 41.0603 0.414343C41.6683 0.133997 42.3542 0.00939941 43.118 0.00939941C43.8819 0.00939941 44.5677 0.133997 45.1601 0.414343C45.7525 0.679115 46.2201 1.05291 46.5475 1.52015C46.8904 2.00297 47.0775 2.53251 47.0931 3.13993H45.3939C45.3316 2.62596 45.0978 2.22102 44.6769 1.94067C44.256 1.64475 43.7104 1.50458 43.0713 1.50458C42.6192 1.50458 42.2139 1.58245 41.8865 1.72263C41.5436 1.8628 41.2786 2.06527 41.1071 2.31447C40.92 2.56366 40.8265 2.84401 40.8265 3.17108C40.8265 3.5293 40.9356 3.80965 41.1539 4.04327C41.3721 4.26132 41.6371 4.43264 41.9645 4.55724C42.2762 4.69741 42.588 4.79086 42.8686 4.86873L43.9754 5.16465C44.3339 5.2581 44.708 5.36713 45.0822 5.52287C45.4719 5.67862 45.8148 5.88109 46.1422 6.13029C46.4695 6.37949 46.7345 6.67541 46.9372 7.0492C47.1398 7.40742 47.2334 7.84352 47.2334 8.35749C47.2334 8.99605 47.0775 9.57232 46.7501 10.0707C46.4072 10.5691 45.9395 10.9585 45.316 11.2544C44.6769 11.5347 43.9286 11.6749 43.0401 11.6749Z" fill="black"/>
<path d="M48.3575 11.488L52.395 0.149536H54.5306L58.6303 11.488H56.7597L54.5462 5.18019C54.3747 4.66622 54.1876 4.07438 53.985 3.37352C53.7823 2.67265 53.5329 1.84719 53.2679 0.881551H53.6264C53.3614 1.86276 53.1276 2.7038 52.925 3.40467C52.7223 4.10553 52.5353 4.69737 52.3794 5.18019L50.2282 11.488H48.3575ZM50.5399 8.49762V7.04917H56.448V8.49762H50.5399Z" fill="black"/>
<path d="M60.2802 11.488V0.149536H62.0105V9.9928H67.1391V11.488H60.2802Z" fill="black"/>
<path d="M71.2176 11.488L67.1178 0.149536H68.9884L71.202 6.45733C71.3579 6.95572 71.5449 7.54756 71.7632 8.24843C71.9658 8.94929 72.1996 9.79033 72.4646 10.7404H72.1217C72.3867 9.75918 72.6205 8.93372 72.8232 8.23285C73.0258 7.53199 73.2129 6.95572 73.3688 6.45733L75.5044 0.149536H77.3906L73.3376 11.488H71.2176Z" fill="black"/>
<path d="M77.0485 11.488L81.0859 0.149536H83.2215L87.3213 11.488H85.4506L83.2371 5.18019C83.0656 4.66622 82.8785 4.07438 82.6759 3.37352C82.4732 2.67265 82.2238 1.84719 81.9588 0.881551H82.3174C82.0524 1.86276 81.8185 2.7038 81.6159 3.40467C81.4132 4.10553 81.2262 4.69737 81.0703 5.18019L78.9191 11.488H77.0485ZM79.2308 8.49762V7.04917H85.1389V8.49762H79.2308Z" fill="black"/>
<path d="M87.0471 1.64472V0.149536H95.8546V1.64472H92.3316V11.488H90.5857V1.64472H87.0471Z" fill="black"/>
<path d="M102.053 11.6438C101.071 11.6438 100.198 11.4101 99.4185 10.9429C98.6546 10.4757 98.0311 9.80594 97.5946 8.94933C97.1426 8.07714 96.9243 7.03363 96.9243 5.83437C96.9243 4.61954 97.1426 3.57603 97.5946 2.70384C98.0311 1.83165 98.6546 1.17751 99.4185 0.710265C100.198 0.243022 101.071 0.00939941 102.053 0.00939941C103.035 0.00939941 103.908 0.243022 104.672 0.710265C105.436 1.17751 106.044 1.83165 106.496 2.70384C106.932 3.57603 107.166 4.61954 107.166 5.83437C107.166 7.03363 106.932 8.07714 106.496 8.94933C106.044 9.80594 105.436 10.4757 104.672 10.9429C103.908 11.4101 103.035 11.6438 102.053 11.6438ZM102.053 10.0551C102.692 10.0551 103.269 9.89939 103.783 9.57232C104.298 9.24525 104.687 8.778 104.984 8.13944C105.28 7.51645 105.436 6.73771 105.436 5.83437C105.436 4.91546 105.28 4.13672 104.984 3.49815C104.687 2.87516 104.298 2.39234 103.783 2.06527C103.269 1.7382 102.692 1.58245 102.053 1.58245C101.398 1.58245 100.821 1.75378 100.307 2.08085C99.7926 2.39234 99.3873 2.87516 99.0911 3.51373C98.7949 4.13672 98.6546 4.91546 98.6546 5.83437C98.6546 6.73771 98.7949 7.51645 99.0911 8.13944C99.3873 8.76243 99.7926 9.24525 100.307 9.57232C100.821 9.89939 101.398 10.0551 102.053 10.0551Z" fill="black"/>
<path d="M109.279 11.488V0.149536H113.332C114.205 0.149536 114.938 0.305284 115.515 0.616779C116.107 0.9127 116.544 1.33322 116.824 1.86276C117.12 2.40788 117.261 3.0153 117.261 3.71616C117.261 4.41703 117.12 5.02445 116.824 5.55399C116.528 6.08353 116.091 6.48848 115.515 6.76882C114.938 7.06474 114.205 7.20492 113.317 7.20492H110.261V5.72531H113.145C113.706 5.72531 114.158 5.64744 114.501 5.49169C114.844 5.32037 115.094 5.10232 115.265 4.79082C115.421 4.4949 115.499 4.13668 115.499 3.71616C115.499 3.29564 115.421 2.92185 115.265 2.61035C115.094 2.29886 114.844 2.06524 114.501 1.89391C114.158 1.72259 113.706 1.64472 113.145 1.64472H111.01V11.488H109.279ZM115.717 11.488L112.974 6.36388H114.891L117.697 11.488H115.717Z" fill="black"/>
<path d="M119.38 11.488V0.149536H126.504V1.64472H121.11V5.02445H126.13V6.50405H121.11V9.9928H126.566V11.488H119.38Z" fill="black"/>
<path d="M35.1492 0.00012207H-0.000244141V36.6866H35.1492V0.00012207Z" fill="#0F0A0A"/>
<path d="M45.3806 36.5989H40.0775V33.7436H45.2038C46.8243 33.7436 48.1795 33.4198 49.2401 32.8311C50.3302 32.2129 51.1257 31.3298 51.656 30.1524C52.1863 28.9749 52.4809 27.562 52.4809 25.8547C52.4809 24.1769 52.1863 22.7639 51.656 21.6159C51.1257 20.4385 50.3302 19.5554 49.2991 18.9667C48.2384 18.3485 46.9421 18.0542 45.3806 18.0542H39.9596V15.1694H45.5869C47.7081 15.1694 49.5053 15.611 51.0078 16.4646C52.5104 17.3183 53.6594 18.5546 54.4843 20.1441C55.2798 21.7337 55.6923 23.647 55.6923 25.8547C55.6923 28.0919 55.2798 30.0052 54.4843 31.6242C53.6594 33.2137 52.4809 34.45 50.9489 35.3037C49.4169 36.1573 47.5608 36.5989 45.3806 36.5989ZM41.6979 15.1694V36.5989H38.4276V15.1694H41.6979Z" fill="black"/>
<path d="M59.6948 36.5989V15.1694H73.1589V17.9953H62.9651V24.3829H72.4518V27.1793H62.9651V33.773H73.2768V36.5989H59.6948Z" fill="black"/>
<path d="M82.6654 36.5989V15.1694H90.3255C91.9754 15.1694 93.3601 15.4638 94.4502 16.0525C95.5697 16.6118 96.3946 17.4066 96.925 18.4074C97.4847 19.4377 97.7499 20.5857 97.7499 21.9103C97.7499 23.2349 97.4847 24.3829 96.925 25.3837C96.3652 26.3846 95.5403 27.1499 94.4502 27.6798C93.3601 28.239 91.9754 28.504 90.296 28.504H84.5215V25.7075H89.972C91.0326 25.7075 91.887 25.5604 92.5351 25.266C93.1833 24.9422 93.6547 24.5301 93.9788 23.9414C94.2734 23.3821 94.4207 22.7051 94.4207 21.9103C94.4207 21.1155 94.2734 20.409 93.9788 19.8203C93.6547 19.2316 93.1833 18.7901 92.5351 18.4663C91.887 18.1425 91.0326 17.9953 89.972 17.9953H85.9357V36.5989H82.6654ZM94.8332 36.5989L89.6479 26.9144H93.2717L98.5748 36.5989H94.8332Z" fill="black"/>
<path d="M110.682 36.8933C108.826 36.8933 107.176 36.4517 105.703 35.5686C104.259 34.6856 103.081 33.4198 102.256 31.8008C101.402 30.1524 100.989 28.1802 100.989 25.9136C100.989 23.6176 101.402 21.6454 102.256 19.997C103.081 18.3486 104.259 17.1122 105.703 16.2292C107.176 15.3461 108.826 14.9045 110.682 14.9045C112.538 14.9045 114.188 15.3461 115.632 16.2292C117.075 17.1122 118.224 18.3486 119.079 19.997C119.904 21.6454 120.346 23.6176 120.346 25.9136C120.346 28.1802 119.904 30.1524 119.079 31.8008C118.224 33.4198 117.075 34.6856 115.632 35.5686C114.188 36.4517 112.538 36.8933 110.682 36.8933ZM110.682 33.8908C111.89 33.8908 112.98 33.5964 113.952 32.9783C114.925 32.3601 115.661 31.477 116.221 30.2702C116.781 29.0927 117.075 27.6209 117.075 25.9136C117.075 24.1769 116.781 22.7051 116.221 21.4982C115.661 20.3208 114.925 19.4083 113.952 18.7901C112.98 18.1719 111.89 17.8776 110.682 17.8776C109.445 17.8776 108.355 18.2014 107.382 18.8195C106.41 19.4083 105.644 20.3208 105.084 21.5276C104.525 22.7051 104.259 24.1769 104.259 25.9136C104.259 27.6209 104.525 29.0927 105.084 30.2702C105.644 31.4476 106.41 32.3601 107.382 32.9783C108.355 33.5964 109.445 33.8908 110.682 33.8908Z" fill="black"/>
<path d="M124.34 36.5989V15.1694H129.172L133.827 27.4737C133.974 27.8269 134.121 28.2979 134.298 28.8572C134.446 29.4165 134.622 30.0052 134.799 30.6822C135.005 31.3298 135.182 31.948 135.329 32.5956C135.506 33.2137 135.653 33.8024 135.771 34.3029H135.064C135.212 33.8319 135.359 33.2726 135.506 32.6544C135.683 32.0069 135.86 31.3887 136.036 30.7117C136.213 30.0641 136.39 29.4459 136.567 28.8866C136.714 28.2979 136.891 27.8269 137.009 27.4737L141.634 15.1694H146.466V36.5989H143.225V25.0894C143.225 24.6184 143.225 24.0886 143.225 23.4998C143.225 22.8817 143.255 22.2341 143.255 21.5571C143.284 20.8506 143.284 20.1736 143.314 19.4671C143.343 18.7606 143.343 18.0836 143.343 17.436H143.608C143.402 18.1425 143.196 18.8784 142.96 19.6143C142.754 20.3502 142.518 21.0566 142.312 21.7631C142.076 22.4401 141.87 23.0877 141.693 23.647C141.487 24.2357 141.31 24.7067 141.192 25.0894L136.802 36.5989H133.974L129.555 25.0894C129.408 24.7067 129.231 24.2357 129.054 23.6764C128.877 23.1172 128.671 22.499 128.435 21.822C128.229 21.145 127.993 20.409 127.758 19.6731C127.551 18.9372 127.316 18.2013 127.08 17.436H127.375C127.375 18.0247 127.404 18.6723 127.404 19.3494C127.434 20.0558 127.434 20.7328 127.463 21.4393C127.463 22.1458 127.493 22.7934 127.493 23.4115C127.522 24.0591 127.522 24.6184 127.522 25.0894V36.5989H124.34Z" fill="black"/>
<path d="M149.583 36.5989L157.214 15.1694H161.25L168.999 36.5989H165.463L161.28 24.6773C160.956 23.7059 160.602 22.5873 160.219 21.2627C159.836 19.9381 159.365 18.378 158.864 16.5529H159.542C159.041 18.4074 158.599 19.9969 158.216 21.3216C157.833 22.6462 157.479 23.7648 157.185 24.6773L153.119 36.5989H149.583ZM153.708 30.9472V28.2096H164.874V30.9472H153.708Z" fill="black"/>
<path d="M5.23755 20.466V16.2401L29.9366 4.29272V10.0838L11.7648 18.2748L11.9214 17.9618V18.7444L11.7648 18.4313L29.9366 26.6745V32.4134L5.23755 20.466Z" fill="white"/>
</g>
<defs>
<clipPath id="clip0_84_119">
<rect width="169" height="36.8933" fill="white"/>
</clipPath>
</defs>
</svg>
